<svg width="200" height="65" viewBox="0 0 200 65" fill="none" xmlns="http://www.w3.org/2000/svg">
<path d="M182.848 0C186.16 0 189.053 0.752865 191.528 2.25859C194.038 3.76431 195.972 5.93536 197.332 8.77172C198.726 11.5731 199.423 14.9872 199.423 19.0141C199.423 22.936 198.709 26.3677 197.279 29.3091C195.885 32.2505 193.933 34.5441 191.423 36.1899C188.913 37.8357 186.038 38.6586 182.796 38.6586C179.484 38.6586 176.574 37.9057 174.064 36.4C171.589 34.8943 169.654 32.7232 168.26 29.8869C166.9 27.0505 166.221 23.6364 166.221 19.6444C166.221 15.7226 166.935 12.2909 168.364 9.3495C169.794 6.40808 171.746 4.11448 174.221 2.46869C176.73 0.822898 179.606 0 182.848 0ZM182.639 0.945456C180.373 0.945456 178.404 1.73334 176.73 3.30909C175.057 4.88485 173.75 7.05589 172.809 9.82222C171.903 12.5886 171.449 15.7926 171.449 19.4343C171.449 23.1461 171.955 26.3852 172.966 29.1515C174.011 31.8828 175.406 34.0014 177.149 35.5071C178.926 36.9778 180.879 37.7131 183.005 37.7131C185.271 37.7131 187.24 36.9253 188.913 35.3495C190.587 33.7737 191.876 31.6027 192.783 28.8364C193.724 26.035 194.194 22.831 194.194 19.2242C194.194 15.4774 193.672 12.2384 192.626 9.50708C191.615 6.77576 190.238 4.67475 188.495 3.20404C186.752 1.69832 184.8 0.945456 182.639 0.945456Z" fill="#D17D2F"/>
<path d="M161.922 0.735352V1.78586C160.736 1.82087 159.83 1.99596 159.203 2.31111C158.61 2.62626 158.209 3.134 158 3.83434C157.791 4.53468 157.686 5.53266 157.686 6.82828V38.1859C157.477 38.1859 157.268 38.1859 157.059 38.1859C156.885 38.1859 156.693 38.1859 156.484 38.1859L134.523 4.09696V31.8303C134.523 33.0909 134.627 34.0889 134.837 34.8242C135.081 35.5246 135.534 36.0323 136.196 36.3475C136.893 36.6276 137.922 36.8027 139.281 36.8727V37.9232C138.654 37.8532 137.834 37.8182 136.824 37.8182C135.813 37.7832 134.854 37.7657 133.948 37.7657C133.076 37.7657 132.187 37.7832 131.281 37.8182C130.41 37.8182 129.678 37.8532 129.085 37.9232V36.8727C130.27 36.8027 131.159 36.6276 131.752 36.3475C132.379 36.0323 132.797 35.5246 133.007 34.8242C133.216 34.0889 133.32 33.0909 133.32 31.8303V6.30303C133.32 5.0074 133.216 4.06195 133.007 3.46666C132.797 2.83636 132.379 2.41616 131.752 2.20606C131.159 1.96094 130.27 1.82087 129.085 1.78586V0.735352C129.678 0.770368 130.41 0.805383 131.281 0.840399C132.187 0.875416 133.076 0.892925 133.948 0.892925C134.715 0.892925 135.447 0.875416 136.144 0.840399C136.841 0.805383 137.468 0.770368 138.026 0.735352L156.484 29.3091V6.82828C156.484 5.53266 156.362 4.53468 156.118 3.83434C155.908 3.134 155.455 2.62626 154.758 2.31111C154.096 1.99596 153.085 1.82087 151.725 1.78586V0.735352C152.353 0.770368 153.172 0.805383 154.183 0.840399C155.229 0.875416 156.187 0.892925 157.059 0.892925C157.965 0.892925 158.854 0.875416 159.725 0.840399C160.632 0.805383 161.364 0.770368 161.922 0.735352Z" fill="#D17D2F"/>
<path d="M111.864 0.472717L124.622 33.5111C125.145 34.8417 125.738 35.7347 126.4 36.1899C127.062 36.6101 127.672 36.8377 128.23 36.8727V37.9232C127.533 37.8532 126.679 37.8182 125.668 37.8182C124.657 37.7832 123.646 37.7657 122.635 37.7657C121.276 37.7657 120.003 37.7832 118.818 37.8182C117.633 37.8182 116.674 37.8532 115.942 37.9232V36.8727C117.72 36.8027 118.853 36.505 119.341 35.9798C119.829 35.4195 119.725 34.2465 119.027 32.4606L109.302 6.35555L110.139 5.67272L101.041 29.4141C100.483 30.8148 100.152 32.0054 100.047 32.9859C99.9425 33.9313 100.03 34.6842 100.308 35.2444C100.622 35.8047 101.128 36.2074 101.825 36.4525C102.557 36.6976 103.463 36.8377 104.544 36.8727V37.9232C103.568 37.8532 102.539 37.8182 101.459 37.8182C100.413 37.7832 99.437 37.7657 98.5307 37.7657C97.6592 37.7657 96.9098 37.7832 96.2823 37.8182C95.6897 37.8182 95.132 37.8532 94.6091 37.9232V36.8727C95.3063 36.6976 96.0209 36.2949 96.7529 35.6646C97.4849 34.9993 98.1473 33.8788 98.7398 32.303L111.027 0.472717C111.167 0.472717 111.306 0.472717 111.446 0.472717C111.585 0.472717 111.725 0.472717 111.864 0.472717ZM118.243 22.796V23.8465H102.661L103.184 22.796H118.243Z" fill="#D17D2F"/>
<path d="M63.2659 0.735352C63.9979 0.770368 64.9565 0.805383 66.1417 0.840399C67.3269 0.875416 68.4946 0.892925 69.645 0.892925C71.2833 0.892925 72.8519 0.875416 74.3508 0.840399C75.8497 0.805383 76.9129 0.787876 77.5404 0.787876C80.3639 0.787876 82.6994 1.19057 84.5469 1.99596C86.4293 2.80134 87.8236 3.90437 88.7299 5.30505C89.6711 6.6707 90.1417 8.21144 90.1417 9.92727C90.1417 10.9778 89.9325 12.0983 89.5142 13.2889C89.0959 14.4795 88.3639 15.6 87.3182 16.6505C86.3073 17.701 84.9129 18.5764 83.1351 19.2768C81.3574 19.9421 79.109 20.2747 76.3901 20.2747H71.3704V19.2242H75.8672C78.3421 19.2242 80.2245 18.8391 81.5142 18.0687C82.8389 17.2633 83.7277 16.2128 84.1809 14.9172C84.6689 13.5865 84.9129 12.1158 84.9129 10.505C84.9129 7.73872 84.2506 5.60269 82.926 4.09696C81.6362 2.55622 79.4053 1.78586 76.2332 1.78586C74.6297 1.78586 73.584 2.0835 73.0959 2.67879C72.6079 3.27407 72.3639 4.48215 72.3639 6.30303V32.3556C72.3639 33.6162 72.4685 34.5616 72.6776 35.1919C72.8868 35.8222 73.2877 36.2424 73.8802 36.4525C74.5077 36.6626 75.414 36.8027 76.5992 36.8727V37.9232C75.7975 37.8532 74.7866 37.8182 73.5665 37.8182C72.3813 37.7832 71.1787 37.7657 69.9587 37.7657C68.5992 37.7657 67.3269 37.7832 66.1417 37.8182C64.9565 37.8182 63.9979 37.8532 63.2659 37.9232V36.8727C64.4511 36.8027 65.3399 36.6626 65.9325 36.4525C66.56 36.2424 66.9783 35.8222 67.1874 35.1919C67.3966 34.5616 67.5012 33.6162 67.5012 32.3556V6.30303C67.5012 5.0074 67.3966 4.06195 67.1874 3.46666C66.9783 2.83636 66.56 2.41616 65.9325 2.20606C65.3399 1.96094 64.4511 1.82087 63.2659 1.78586V0.735352ZM71.5796 19.3818C73.4619 19.4518 74.9434 19.5394 76.024 19.6444C77.1047 19.7145 77.9761 19.7845 78.6384 19.8545C79.3356 19.9246 79.9979 20.0121 80.6253 20.1172C82.9609 20.5024 84.6341 21.2202 85.645 22.2707C86.6907 23.2862 87.4576 24.8795 87.9456 27.0505L89.2528 32.4081C89.6014 33.9488 89.95 35.0694 90.2985 35.7697C90.682 36.435 91.2572 36.7502 92.024 36.7152C92.6166 36.6801 93.1047 36.4875 93.4881 36.1374C93.9064 35.7872 94.3421 35.3145 94.7953 34.7192L95.5796 35.297C94.8476 36.3825 94.0807 37.2229 93.2789 37.8182C92.5121 38.3784 91.414 38.6586 89.9848 38.6586C88.6951 38.6586 87.5622 38.2734 86.5861 37.503C85.6101 36.7327 84.8781 35.2269 84.3901 32.9859L83.2397 27.7333C82.926 26.2276 82.56 24.932 82.1417 23.8465C81.7582 22.7259 81.2005 21.8505 80.4685 21.2202C79.7713 20.5899 78.7256 20.2747 77.3312 20.2747H71.6842L71.5796 19.3818Z" fill="#D17D2F"/>
<path d="M58.8807 0.735352V1.78586C57.6955 1.82087 56.7892 1.96094 56.1617 2.20606C55.5691 2.41616 55.1683 2.83636 54.9591 3.46666C54.75 4.06195 54.6454 5.0074 54.6454 6.30303V32.3556C54.6454 33.6162 54.75 34.5616 54.9591 35.1919C55.1683 35.8222 55.5691 36.2424 56.1617 36.4525C56.7892 36.6626 57.6955 36.8027 58.8807 36.8727V37.9232C58.079 37.8532 57.0681 37.8182 55.848 37.8182C54.6628 37.7832 53.4602 37.7657 52.2402 37.7657C50.8807 37.7657 49.6084 37.7832 48.4232 37.8182C47.238 37.8182 46.2794 37.8532 45.5474 37.9232V36.8727C46.7325 36.8027 47.6214 36.6626 48.214 36.4525C48.8415 36.2424 49.2598 35.8222 49.4689 35.1919C49.6781 34.5616 49.7827 33.6162 49.7827 32.3556V6.30303C49.7827 5.0074 49.6781 4.06195 49.4689 3.46666C49.2598 2.83636 48.8415 2.41616 48.214 2.20606C47.6214 1.96094 46.7325 1.82087 45.5474 1.78586V0.735352C46.2794 0.770368 47.238 0.805383 48.4232 0.840399C49.6084 0.875416 50.8807 0.892925 52.2402 0.892925C53.4602 0.892925 54.6628 0.875416 55.848 0.840399C57.0681 0.805383 58.079 0.770368 58.8807 0.735352Z" fill="#D17D2F"/>
<path d="M41.1503 0.735352V1.78586C39.9651 1.82087 39.0588 1.96094 38.4314 2.20606C37.8388 2.41616 37.4379 2.83636 37.2288 3.46666C37.0196 4.06195 36.915 5.0074 36.915 6.30303V32.3555C36.915 33.6162 37.0196 34.5616 37.2288 35.1919C37.4379 35.8222 37.8388 36.2424 38.4314 36.4525C39.0588 36.6626 39.9651 36.8027 41.1503 36.8727V37.9232C40.3486 37.8532 39.3377 37.8182 38.1176 37.8182C36.9325 37.7832 35.7298 37.7657 34.5098 37.7657C33.1503 37.7657 31.878 37.7832 30.6928 37.8182C29.5076 37.8182 28.549 37.8532 27.817 37.9232V36.8727C29.0022 36.8027 29.8911 36.6626 30.4837 36.4525C31.1111 36.2424 31.5294 35.8222 31.7386 35.1919C31.9477 34.5616 32.0523 33.6162 32.0523 32.3555V3.46666L32.2614 3.62424L19.451 38.1859H18.6144L5.43791 4.09696V31.8303C5.43791 33.0909 5.54248 34.0889 5.75163 34.8242C5.99564 35.5246 6.4488 36.0323 7.11111 36.3475C7.80828 36.6276 8.8366 36.8027 10.1961 36.8727V37.9232C9.56863 37.8532 8.74945 37.8182 7.73856 37.8182C6.72767 37.7832 5.76906 37.7657 4.86274 37.7657C3.99128 37.7657 3.1024 37.7832 2.19608 37.8182C1.32462 37.8182 0.592593 37.8532 0 37.9232V36.8727C1.18519 36.8027 2.07407 36.6276 2.66667 36.3475C3.29412 36.0323 3.71242 35.5246 3.92157 34.8242C4.13072 34.0889 4.23529 33.0909 4.23529 31.8303V6.30303C4.23529 5.0074 4.13072 4.06195 3.92157 3.46666C3.71242 2.83636 3.29412 2.41616 2.66667 2.20606C2.07407 1.96094 1.18519 1.82087 0 1.78586V0.735352C0.592593 0.770368 1.32462 0.805383 2.19608 0.840399C3.1024 0.875416 3.99128 0.892925 4.86274 0.892925C5.62963 0.892925 6.41394 0.875416 7.21569 0.840399C8.05229 0.805383 8.74945 0.770368 9.30719 0.735352L21.1765 32.1454L20.2876 32.5656L32.0523 0.892925C32.4706 0.892925 32.8715 0.892925 33.2549 0.892925C33.6732 0.892925 34.0915 0.892925 34.5098 0.892925C35.7298 0.892925 36.9325 0.875416 38.1176 0.840399C39.3377 0.805383 40.3486 0.770368 41.1503 0.735352Z" fill="#D17D2F"/>
<path d="M183.498 62.793V48.1995H191.622V49.0261H184.389V55.0758H191.187V55.9024H184.389V61.9664H191.793V62.793H183.498Z" fill="#D17D2F"/>
<path d="M178.391 48.1995H179.282V57.862C179.282 58.8548 179.051 59.7408 178.59 60.5199C178.13 61.2942 177.493 61.907 176.681 62.3583C175.873 62.8048 174.944 63.0281 173.895 63.0281C172.85 63.0281 171.921 62.8048 171.108 62.3583C170.296 61.907 169.657 61.2918 169.192 60.5127C168.731 59.7337 168.503 58.8501 168.508 57.862V48.1995H169.398V57.8121C169.398 58.6529 169.588 59.4011 169.968 60.0567C170.353 60.7123 170.883 61.2301 171.557 61.6101C172.232 61.9854 173.011 62.173 173.895 62.173C174.778 62.173 175.557 61.9854 176.232 61.6101C176.906 61.2301 177.434 60.7123 177.814 60.0567C178.199 59.4011 178.391 58.6529 178.391 57.8121V48.1995Z" fill="#D17D2F"/>
<path d="M159.041 58.2325H160.067L162.191 61.0329L162.39 61.3037L164.542 64.1611H163.516L161.749 61.8167L161.564 61.5602L159.041 58.2325ZM165.027 55.4962C165.027 57.0021 164.765 58.318 164.243 59.4439C163.72 60.565 162.993 61.4367 162.062 62.059C161.136 62.6813 160.067 62.9925 158.856 62.9925C157.64 62.9925 156.566 62.6813 155.635 62.059C154.709 61.4319 153.984 60.5579 153.462 59.4368C152.939 58.3109 152.678 56.9974 152.678 55.4962C152.678 53.9903 152.939 52.6768 153.462 51.5557C153.989 50.4346 154.716 49.5629 155.642 48.9406C156.568 48.3135 157.64 48 158.856 48C160.067 48 161.136 48.3112 162.062 48.9335C162.993 49.5558 163.72 50.4299 164.243 51.5557C164.765 52.6768 165.027 53.9903 165.027 55.4962ZM164.157 55.4962C164.157 54.1424 163.929 52.969 163.473 51.9761C163.022 50.9833 162.397 50.2161 161.599 49.6745C160.801 49.1282 159.887 48.8551 158.856 48.8551C157.825 48.8551 156.911 49.1259 156.112 49.6674C155.314 50.2042 154.687 50.9714 154.231 51.969C153.78 52.9619 153.554 54.1376 153.554 55.4962C153.554 56.8406 153.778 58.0116 154.224 59.0092C154.675 60.0021 155.3 60.7716 156.098 61.3179C156.896 61.8642 157.815 62.1374 158.856 62.1374C159.887 62.1374 160.801 61.8666 161.599 61.3251C162.397 60.7788 163.022 60.0092 163.473 59.0163C163.929 58.0235 164.157 56.8501 164.157 55.4962Z" fill="#D17D2F"/>
<path d="M149.195 48.1995V62.793H148.304V48.1995H149.195Z" fill="#D17D2F"/>
<path d="M134.833 49.0261V48.1995H145.059V49.0261H140.391V62.793H139.501V49.0261H134.833Z" fill="#D17D2F"/>
<path d="M130.695 48.1995H131.586V57.862C131.586 58.8548 131.355 59.7408 130.894 60.5199C130.434 61.2942 129.797 61.907 128.985 62.3583C128.177 62.8048 127.248 63.0281 126.199 63.0281C125.154 63.0281 124.225 62.8048 123.412 62.3583C122.6 61.907 121.961 61.2918 121.496 60.5127C121.035 59.7337 120.807 58.8501 120.812 57.862V48.1995H121.702V57.8121C121.702 58.6529 121.892 59.4011 122.272 60.0567C122.657 60.7123 123.187 61.2301 123.861 61.6101C124.536 61.9854 125.315 62.173 126.199 62.173C127.082 62.173 127.861 61.9854 128.536 61.6101C129.21 61.2301 129.738 60.7123 130.118 60.0567C130.503 59.4011 130.695 58.6529 130.695 57.8121V48.1995Z" fill="#D17D2F"/>
<path d="M117.331 55.4962C117.331 57.0021 117.07 58.318 116.547 59.4439C116.025 60.565 115.298 61.4367 114.367 62.059C113.44 62.6813 112.371 62.9925 111.16 62.9925C109.944 62.9925 108.87 62.6813 107.939 62.059C107.013 61.4319 106.288 60.5579 105.766 59.4368C105.243 58.3109 104.982 56.9974 104.982 55.4962C104.982 53.9903 105.243 52.6768 105.766 51.5557C106.293 50.4346 107.02 49.5629 107.946 48.9406C108.873 48.3135 109.944 48 111.16 48C112.371 48 113.44 48.3112 114.367 48.9335C115.298 49.5558 116.025 50.4299 116.547 51.5557C117.07 52.6768 117.331 53.9903 117.331 55.4962ZM116.462 55.4962C116.462 54.1424 116.234 52.969 115.777 51.9761C115.326 50.9833 114.702 50.2161 113.903 49.6745C113.105 49.1282 112.191 48.8551 111.16 48.8551C110.129 48.8551 109.215 49.1259 108.417 49.6674C107.619 50.2042 106.992 50.9714 106.535 51.969C106.084 52.9619 105.859 54.1376 105.859 55.4962C105.859 56.8406 106.082 58.0116 106.528 59.0092C106.98 60.0021 107.604 60.7716 108.402 61.3179C109.2 61.8642 110.12 62.1374 111.16 62.1374C112.191 62.1374 113.105 61.8666 113.903 61.3251C114.702 60.7788 115.326 60.0092 115.777 59.0163C116.234 58.0235 116.462 56.8501 116.462 55.4962Z" fill="#D17D2F"/>
<path d="M92.8094 62.793V48.1995H97.548C98.4316 48.1995 99.1774 48.3563 99.7855 48.6698C100.394 48.9834 100.854 49.4228 101.168 49.9881C101.486 50.5534 101.645 51.2113 101.645 51.9619C101.645 52.551 101.55 53.0735 101.36 53.5295C101.17 53.9856 100.904 54.3633 100.562 54.6625C100.225 54.9571 99.8283 55.1613 99.3722 55.2753V55.3609C99.8758 55.3989 100.344 55.5746 100.776 55.8882C101.208 56.1969 101.555 56.6174 101.816 57.1494C102.082 57.6815 102.215 58.3014 102.215 59.0092C102.215 59.755 102.054 60.413 101.731 60.983C101.413 61.5483 100.935 61.9925 100.299 62.3155C99.662 62.6338 98.8734 62.793 97.9328 62.793H92.8094ZM93.7002 61.9664H97.9328C99.0302 61.9664 99.8734 61.6909 100.462 61.1398C101.056 60.5887 101.353 59.8786 101.353 59.0092C101.353 58.3964 101.208 57.8477 100.918 57.3632C100.633 56.8786 100.237 56.4962 99.7285 56.2159C99.2202 55.9309 98.6311 55.7884 97.9613 55.7884H93.7002V61.9664ZM93.7002 54.9761H97.8544C98.4768 54.9761 99.0041 54.8407 99.4363 54.5699C99.8734 54.2991 100.206 53.9357 100.434 53.4797C100.667 53.0236 100.783 52.5177 100.783 51.9619C100.783 51.0593 100.503 50.3444 99.9423 49.8171C99.3817 49.2898 98.5836 49.0261 97.548 49.0261H93.7002V54.9761Z" fill="#D17D2F"/>
<path d="M74.6638 62.793V48.1995H79.1601C80.0817 48.1995 80.8751 48.38 81.5401 48.7411C82.2052 49.1021 82.7159 49.6033 83.0721 50.2446C83.4284 50.8812 83.6066 51.6222 83.6066 52.4678C83.6066 53.3039 83.4284 54.0402 83.0721 54.6768C82.7159 55.3086 82.2052 55.8026 81.5401 56.1589C80.8798 56.5152 80.0889 56.6934 79.1673 56.6934H75.1412V55.8597H79.1459C79.8965 55.8597 80.5378 55.7195 81.0698 55.4392C81.6019 55.159 82.0104 54.767 82.2954 54.2635C82.5805 53.7552 82.723 53.1566 82.723 52.4678C82.723 51.7743 82.5805 51.1709 82.2954 50.6579C82.0104 50.1401 81.5995 49.7387 81.0627 49.4536C80.5306 49.1686 79.8893 49.0261 79.1388 49.0261H75.5545V62.793H74.6638ZM80.6565 56.1803L84.2479 62.793H83.2218L79.6518 56.1803H80.6565Z" fill="#D17D2F"/>
<path d="M62.8477 62.793V48.1995H70.971V49.0261H63.7384V55.0758H70.5363V55.9024H63.7384V61.9664H71.142V62.793H62.8477Z" fill="#D17D2F"/>
<path d="M46.9877 62.793L42.976 48.1995H43.9023L47.4651 61.4177H47.5507L51.0565 48.1995H52.1396L55.6455 61.4177H55.731L59.2938 48.1995H60.213L56.2013 62.793H55.1752L51.6337 49.6603H51.5553L48.0138 62.793H46.9877Z" fill="#D17D2F"/>
<path d="M41.0841 55.4962C41.0841 57.0021 40.8228 58.318 40.3002 59.4439C39.7777 60.565 39.0509 61.4367 38.1198 62.059C37.1934 62.6813 36.1246 62.9925 34.9132 62.9925C33.6971 62.9925 32.6235 62.6813 31.6924 62.059C30.7661 61.4319 30.0416 60.5579 29.5191 59.4368C28.9965 58.3109 28.7352 56.9974 28.7352 55.4962C28.7352 53.9903 28.9965 52.6768 29.5191 51.5557C30.0464 50.4346 30.7732 49.5629 31.6995 48.9406C32.6259 48.3135 33.6971 48 34.9132 48C36.1246 48 37.1934 48.3112 38.1198 48.9335C39.0509 49.5558 39.7777 50.4299 40.3002 51.5557C40.8228 52.6768 41.0841 53.9903 41.0841 55.4962ZM40.2147 55.4962C40.2147 54.1424 39.9867 52.969 39.5307 51.9761C39.0794 50.9833 38.4547 50.2161 37.6566 49.6745C36.8585 49.1282 35.9441 48.8551 34.9132 48.8551C33.8824 48.8551 32.9679 49.1259 32.1698 49.6674C31.3717 50.2042 30.7447 50.9714 30.2886 51.969C29.8373 52.9619 29.6117 54.1376 29.6117 55.4962C29.6117 56.8406 29.835 58.0116 30.2815 59.0092C30.7328 60.0021 31.3575 60.7716 32.1556 61.3179C32.9536 61.8642 33.8729 62.1374 34.9132 62.1374C35.9441 62.1374 36.8585 61.8666 37.6566 61.3251C38.4547 60.7788 39.0794 60.0092 39.5307 59.0163C39.9867 58.0235 40.2147 56.8501 40.2147 55.4962Z" fill="#D17D2F"/>
<path d="M18.7574 62.793V48.1995H19.6482V61.9664H26.7739V62.793H18.7574Z" fill="#D17D2F"/>
<path d="M7 62.793V48.1995H15.1447V49.0261H7.89071V55.0758H14.4677V55.9024H7.89071V62.793H7Z" fill="#D17D2F"/>
</svg>
